{
  "accessors": [
    {
      "bufferView": 2,
      "componentType": 5126,
      "count": 852,
      "max": [
        574.0009765625,
        1723.86328125,
        522.1071166992188
      ],
      "min": [
        90.35029602050781,
        1723.862548828125,
        88.91551208496094
      ],
      "type": "VEC3"
    },
    {
      "bufferView": 2,
      "byteOffset": 10224,
      "componentType": 5126,
      "count": 852,
      "max": [
        0.0023999838158488274,
        1.0,
        0.008599682711064816
      ],
      "min": [
        -0.001799970748834312,
        0.9999630451202393,
        -0.005399912595748901
      ],
      "type": "VEC3"
    },
    {
      "bufferView": 1,
      "componentType": 5126,
      "count": 852,
      "max": [
        0.6226999759674072,
        0.7699999809265137
      ],
      "min": [
        0.21070000529289246,
        0.32179999351501465
      ],
      "type": "VEC2"
    },
    {
      "bufferView": 0,
      "componentType": 5125,
      "count": 2574,
      "type": "SCALAR"
    },
    {
      "bufferView": 2,
      "byteOffset": 20448,
      "componentType": 5126,
      "count": 65532,
      "max": [
        574.5001220703125,
        1723.86328125,
        521.5783081054688
      ],
      "min": [
        13.5,
        0.0,
        0.1248016357421875
      ],
      "type": "VEC3"
    },
    {
      "bufferView": 2,
      "byteOffset": 806832,
      "componentType": 5126,
      "count": 65532,
      "max": [
        0.9999991655349731,
        0.9999942779541016,
        0.9999943971633911
      ],
      "min": [
        -0.9999985694885254,
        -0.999771773815155,
        -0.9999874830245972
      ],
      "type": "VEC3"
    },
    {
      "bufferView": 1,
      "byteOffset": 6816,
      "componentType": 5126,
      "count": 65532,
      "max": [
        0.994700014591217,
        0.9901000261306763
      ],
      "min": [
        0.0017000000225380063,
        0.0008999999845400453
      ],
      "type": "VEC2"
    },
    {
      "bufferView": 0,
      "byteOffset": 10296,
      "componentType": 5125,
      "count": 312828,
      "type": "SCALAR"
    },
    {
      "bufferView": 2,
      "byteOffset": 1593216,
      "componentType": 5126,
      "count": 65532,
      "max": [
        574.5001220703125,
        1723.86328125,
        520.3529052734375
      ],
      "min": [
        0.0,
        11.97003173828125,
        0.0
      ],
      "type": "VEC3"
    },
    {
      "bufferView": 2,
      "byteOffset": 2379600,
      "componentType": 5126,
      "count": 65532,
      "max": [
        0.9999945163726807,
        0.9999942779541016,
        0.9999933242797852
      ],
      "min": [
        -0.999996542930603,
        -0.999942421913147,
        -0.999963641166687
      ],
      "type": "VEC3"
    },
    {
      "bufferView": 1,
      "byteOffset": 531072,
      "componentType": 5126,
      "count": 65532,
      "max": [
        0.9962999820709229,
        0.9983000159263611
      ],
      "min": [
        0.0017000000225380063,
        0.00019999999494757503
      ],
      "type": "VEC2"
    },
    {
      "bufferView": 0,
      "byteOffset": 1261608,
      "componentType": 5125,
      "count": 309852,
      "type": "SCALAR"
    },
    {
      "bufferView": 2,
      "byteOffset": 3165984,
      "componentType": 5126,
      "count": 65534,
      "max": [
        574.2518310546875,
        1723.86328125,
        522.1071166992188
      ],
      "min": [
        0.164093017578125,
        0.0,
        0.1248016357421875
      ],
      "type": "VEC3"
    },
    {
      "bufferView": 2,
      "byteOffset": 3952392,
      "componentType": 5126,
      "count": 65534,
      "max": [
        1.0,
        0.999976396560669,
        0.9999943971633911
      ],
      "min": [
        -0.9999806880950928,
        -0.999910831451416,
        -0.9999936819076538
      ],
      "type": "VEC3"
    },
    {
      "bufferView": 1,
      "byteOffset": 1055328,
      "componentType": 5126,
      "count": 65534,
      "max": [
        0.9965000152587891,
        0.996399998664856
      ],
      "min": [
        0.0013000000035390258,
        0.00019999999494757503
      ],
      "type": "VEC2"
    },
    {
      "bufferView": 0,
      "byteOffset": 2501016,
      "componentType": 5125,
      "count": 230250,
      "type": "SCALAR"
    },
    {
      "bufferView": 2,
      "byteOffset": 4738800,
      "componentType": 5126,
      "count": 4059,
      "max": [
        572.6168212890625,
        1723.23681640625,
        520.6340942382813
      ],
      "min": [
        13.0,
        4.15924072265625,
        1.3505096435546875
      ],
      "type": "VEC3"
    },
    {
      "bufferView": 2,
      "byteOffset": 4787508,
      "componentType": 5126,
      "count": 4059,
      "max": [
        1.0,
        0.99989914894104,
        0.9999171495437622
      ],
      "min": [
        -0.999996542930603,
        -0.9993804693222046,
        -0.9999637603759766
      ],
      "type": "VEC3"
    },
    {
      "bufferView": 1,
      "byteOffset": 1579600,
      "componentType": 5126,
      "count": 4059,
      "max": [
        0.9821000099182129,
        0.9916999936103821
      ],
      "min": [
        0.0017000000225380063,
        0.00430000014603138
      ],
      "type": "VEC2"
    },
    {
      "bufferView": 0,
      "byteOffset": 3422016,
      "componentType": 5125,
      "count": 4710,
      "type": "SCALAR"
    }
  ],
  "asset": {
    "extras": {
      "author": "Alienor.org, Conseil des musées (https://sketchfab.com/alienor.org)",
      "license": "CC-BY-NC-ND-4.0 (http://creativecommons.org/licenses/by-nc-nd/4.0/)",
      "source": "https://sketchfab.com/3d-models/sculpture-en-bois-representant-saint-etienne-8cdf65b077e94d679514b37bc256b6db",
      "title": "Sculpture en bois représentant saint Étienne"
    },
    "generator": "Sketchfab-12.68.0",
    "version": "2.0"
  },
  "bufferViews": [
    {
      "buffer": 0,
      "byteLength": 3440856,
      "name": "floatBufferViews",
      "target": 34963
    },
    {
      "buffer": 0,
      "byteLength": 1612072,
      "byteOffset": 3440856,
      "byteStride": 8,
      "name": "floatBufferViews",
      "target": 34962
    },
    {
      "buffer": 0,
      "byteLength": 4836216,
      "byteOffset": 5052928,
      "byteStride": 12,
      "name": "floatBufferViews",
      "target": 34962
    }
  ],
  "buffers": [
    {
      "byteLength": 9889144,
      "uri": "scene.bin"
    }
  ],
  "images": [
    {
      "uri": "textures/material_0_baseColor.jpeg"
    }
  ],
  "materials": [
    {
      "doubleSided": true,
      "name": "02___Default",
      "pbrMetallicRoughness": {
        "baseColorFactor": [
          0.0,
          0.0,
          0.0,
          1.0
        ],
        "metallicFactor": 0.0,
        "roughnessFactor": 0.6
      }
    },
    {
      "doubleSided": true,
      "emissiveTexture": {
        "index": 0
      },
      "name": "material_0",
      "pbrMetallicRoughness": {
        "baseColorTexture": {
          "index": 0
        },
        "metallicFactor": 0.0
      }
    }
  ],
  "meshes": [
    {
      "name": "Object_0",
      "primitives": [
        {
          "attributes": {
            "NORMAL": 1,
            "POSITION": 0,
            "TEXCOORD_0": 2
          },
          "indices": 3,
          "material": 0,
          "mode": 4
        }
      ]
    },
    {
      "name": "Object_1",
      "primitives": [
        {
          "attributes": {
            "NORMAL": 5,
            "POSITION": 4,
            "TEXCOORD_0": 6
          },
          "indices": 7,
          "material": 1,
          "mode": 4
        }
      ]
    },
    {
      "name": "Object_2",
      "primitives": [
        {
          "attributes": {
            "NORMAL": 9,
            "POSITION": 8,
            "TEXCOORD_0": 10
          },
          "indices": 11,
          "material": 1,
          "mode": 4
        }
      ]
    },
    {
      "name": "Object_3",
      "primitives": [
        {
          "attributes": {
            "NORMAL": 13,
            "POSITION": 12,
            "TEXCOORD_0": 14
          },
          "indices": 15,
          "material": 1,
          "mode": 4
        }
      ]
    },
    {
      "name": "Object_4",
      "primitives": [
        {
          "attributes": {
            "NORMAL": 17,
            "POSITION": 16,
            "TEXCOORD_0": 18
          },
          "indices": 19,
          "material": 1,
          "mode": 4
        }
      ]
    }
  ],
  "nodes": [
    {
      "children": [
        1
      ],
      "matrix": [
        1.0,
        0.0,
        0.0,
        0.0,
        0.0,
        -1.0,
        -2.220446049250313e-16,
        0.0,
        0.0,
        2.220446049250313e-16,
        -1.0,
        0.0,
        0.0,
        -17.379625320434585,
        64.58860778808594,
        1.0
      ],
      "name": "Sketchfab_model"
    },
    {
      "children": [
        2
      ],
      "matrix": [
        1.0,
        0.0,
        0.0,
        0.0,
        0.0,
        1.0,
        0.0,
        0.0,
        0.0,
        0.0,
        1.0,
        0.0,
        -287.32550048828125,
        -902.91552734375,
        -237.4488067626953,
        1.0
      ],
      "name": "saintetienne.obj.cleaner.gles"
    },
    {
      "children": [
        3,
        4,
        5,
        6,
        7
      ],
      "name": "Object_2"
    },
    {
      "mesh": 0,
      "name": "Object_3"
    },
    {
      "mesh": 1,
      "name": "Object_4"
    },
    {
      "mesh": 2,
      "name": "Object_5"
    },
    {
      "mesh": 3,
      "name": "Object_6"
    },
    {
      "mesh": 4,
      "name": "Object_7"
    }
  ],
  "samplers": [
    {
      "magFilter": 9729,
      "minFilter": 9987,
      "wrapS": 10497,
      "wrapT": 10497
    }
  ],
  "scene": 0,
  "scenes": [
    {
      "name": "Sketchfab_Scene",
      "nodes": [
        0
      ]
    }
  ],
  "textures": [
    {
      "sampler": 0,
      "source": 0
    }
  ]
}
